<svg width="12" height="10" viewBox="0 0 12 10" fill="none" xmlns="http://www.w3.org/2000/svg">
<path fill-rule="evenodd" clip-rule="evenodd" d="M11.5681 1.79048C11.8346 2.82998 11.8346 4.99998 11.8346 4.99998C11.8346 4.99998 11.8346 7.16998 11.5681 8.20948C11.4199 8.78406 10.9865 9.23615 10.4376 9.38898C9.44064 9.66665 6.0013 9.66665 6.0013 9.66665C6.0013 9.66665 2.56372 9.66665 1.56505 9.38898C1.0138 9.23381 0.580969 8.78231 0.434552 8.20948C0.167969 7.16998 0.167969 4.99998 0.167969 4.99998C0.167969 4.99998 0.167969 2.82998 0.434552 1.79048C0.582719 1.2159 1.01614 0.763813 1.56505 0.61098C2.56372 0.333313 6.0013 0.333313 6.0013 0.333313C6.0013 0.333313 9.44064 0.333313 10.4376 0.61098C10.9888 0.766146 11.4216 1.21765 11.5681 1.79048ZM10.4381 2.0804C10.3938 1.90656 10.2678 1.77531 10.1237 1.73506C9.8688 1.66331 8.6263 1.49998 6.0013 1.49998C3.3763 1.49998 2.13497 1.66331 1.87772 1.73506C1.73539 1.77473 1.60939 1.90598 1.56447 2.0804C1.50089 2.32773 1.33464 3.36431 1.33464 4.99998C1.33464 6.63565 1.50089 7.67165 1.56447 7.92015C1.6088 8.0934 1.7348 8.22465 1.8783 8.26431C2.13497 8.33665 3.3763 8.49998 6.0013 8.49998C8.6263 8.49998 9.86822 8.33665 10.1249 8.2649C10.2672 8.22523 10.3932 8.09398 10.4381 7.91956C10.5017 7.67223 10.668 6.63331 10.668 4.99998C10.668 3.36665 10.5017 2.32831 10.4381 2.0804ZM4.83464 2.95831V7.04165L8.33463 4.99998L4.83464 2.95831Z" fill="#ABB2BD"/>
</svg>
